<svg xmlns="http://www.w3.org/2000/svg" viewBox="0 0 1024 1024" role="img" aria-labelledby="title desc">
  <title id="title">LeadWatch app icon</title>
  <desc id="desc">A phone handset with an upward sales chart on a purple gradient background.</desc>
  <defs>
    <linearGradient id="bg" x1="116" y1="72" x2="908" y2="944" gradientUnits="userSpaceOnUse">
      <stop offset="0" stop-color="#a335ff"/>
      <stop offset="0.47" stop-color="#6d28d9"/>
      <stop offset="1" stop-color="#43158f"/>
    </linearGradient>
    <linearGradient id="bar" x1="0" y1="394" x2="0" y2="826" gradientUnits="userSpaceOnUse">
      <stop offset="0" stop-color="#9fe7ff"/>
      <stop offset="0.62" stop-color="#47bfff"/>
      <stop offset="1" stop-color="#2a7cf6"/>
    </linearGradient>
    <radialGradient id="glow" cx="0" cy="0" r="1" gradientTransform="matrix(632 556 -556 632 236 156)" gradientUnits="userSpaceOnUse">
      <stop offset="0" stop-color="#ffffff" stop-opacity="0.32"/>
      <stop offset="0.45" stop-color="#ffffff" stop-opacity="0.08"/>
      <stop offset="1" stop-color="#ffffff" stop-opacity="0"/>
    </radialGradient>
    <filter id="softShadow" x="-16%" y="-16%" width="132%" height="132%" color-interpolation-filters="sRGB">
      <feDropShadow dx="0" dy="26" stdDeviation="28" flood-color="#25005b" flood-opacity="0.38"/>
    </filter>
    <filter id="markShadow" x="-18%" y="-18%" width="136%" height="136%" color-interpolation-filters="sRGB">
      <feDropShadow dx="0" dy="16" stdDeviation="15" flood-color="#180038" flood-opacity="0.32"/>
    </filter>
  </defs>

  <rect width="1024" height="1024" rx="244" fill="url(#bg)"/>
  <rect width="1024" height="1024" rx="244" fill="url(#glow)"/>
  <path d="M111 153c77-82 214-108 369-93 203 20 357 139 428 318 61 154 40 345-48 480 95-88 151-215 151-355 0-276-224-500-500-500-160 0-303 75-400 150Z" fill="#ffffff" opacity="0.1"/>

  <g filter="url(#softShadow)" opacity="0.93">
    <rect x="536" y="571" width="76" height="254" rx="23" fill="url(#bar)"/>
    <rect x="663" y="478" width="76" height="347" rx="23" fill="url(#bar)"/>
    <rect x="790" y="394" width="76" height="431" rx="23" fill="url(#bar)"/>
  </g>

  <g filter="url(#markShadow)">
    <path d="M340 620 450 506l96 79 132-148 72 54 128-170" fill="none" stroke="#ffffff" stroke-width="57" stroke-linecap="round" stroke-linejoin="round"/>
    <path d="m902 287-46 161-106-80Z" fill="#ffffff"/>
  </g>

  <g filter="url(#markShadow)">
    <path fill="#ffffff" d="M6.62 10.79c1.44 2.83 3.76 5.14 6.59 6.59l2.2-2.2c.27-.27.67-.36 1.02-.24 1.12.37 2.33.57 3.57.57.55 0 1 .45 1 1V20c0 .55-.45 1-1 1C10.61 21 3 13.39 3 4c0-.55.45-1 1-1h3.5c.55 0 1 .45 1 1 0 1.25.2 2.45.57 3.57.11.35.03.74-.25 1.02l-2.2 2.2Z" transform="translate(86 156) scale(31.8)"/>
  </g>
</svg>
