<svg xmlns="http://www.w3.org/2000/svg" viewBox="0 0 1200 630" role="img" aria-labelledby="title desc">
  <title id="title">LeadWatch — Every sales call. One clear picture.</title>
  <desc id="desc">LeadWatch turns Android call activity into clear, role-aware sales visibility.</desc>
  <defs>
    <linearGradient id="cardBg" x1="0" y1="0" x2="1" y2="1">
      <stop offset="0" stop-color="#07111f"/>
      <stop offset="0.55" stop-color="#160b2d"/>
      <stop offset="1" stop-color="#061b1c"/>
    </linearGradient>
    <linearGradient id="iconBg" x1="116" y1="72" x2="908" y2="944" gradientUnits="userSpaceOnUse">
      <stop offset="0" stop-color="#a335ff"/>
      <stop offset="0.47" stop-color="#6d28d9"/>
      <stop offset="1" stop-color="#43158f"/>
    </linearGradient>
    <linearGradient id="iconBar" x1="0" y1="394" x2="0" y2="826" gradientUnits="userSpaceOnUse">
      <stop offset="0" stop-color="#9fe7ff"/>
      <stop offset="0.62" stop-color="#47bfff"/>
      <stop offset="1" stop-color="#2a7cf6"/>
    </linearGradient>
    <linearGradient id="accent" x1="0" y1="0" x2="1" y2="0">
      <stop offset="0" stop-color="#47bfff"/>
      <stop offset="1" stop-color="#8b5cf6"/>
    </linearGradient>
    <filter id="shadow" x="-20%" y="-20%" width="140%" height="150%">
      <feDropShadow dx="0" dy="24" stdDeviation="24" flood-color="#000000" flood-opacity="0.35"/>
    </filter>
  </defs>

  <rect width="1200" height="630" fill="url(#cardBg)"/>
  <path d="M0 122h1200M0 246h1200M0 370h1200M0 494h1200M170 0v630M342 0v630M514 0v630M686 0v630M858 0v630M1030 0v630" stroke="#ffffff" stroke-opacity="0.045"/>

  <g transform="translate(76 74) scale(0.16)" filter="url(#shadow)">
    <rect width="1024" height="1024" rx="244" fill="url(#iconBg)"/>
    <path d="M111 153c77-82 214-108 369-93 203 20 357 139 428 318 61 154 40 345-48 480 95-88 151-215 151-355 0-276-224-500-500-500-160 0-303 75-400 150Z" fill="#ffffff" opacity="0.1"/>
    <g opacity="0.93">
      <rect x="536" y="571" width="76" height="254" rx="23" fill="url(#iconBar)"/>
      <rect x="663" y="478" width="76" height="347" rx="23" fill="url(#iconBar)"/>
      <rect x="790" y="394" width="76" height="431" rx="23" fill="url(#iconBar)"/>
    </g>
    <path d="M340 620 450 506l96 79 132-148 72 54 128-170" fill="none" stroke="#ffffff" stroke-width="57" stroke-linecap="round" stroke-linejoin="round"/>
    <path d="m902 287-46 161-106-80Z" fill="#ffffff"/>
    <path fill="#ffffff" d="M6.62 10.79c1.44 2.83 3.76 5.14 6.59 6.59l2.2-2.2c.27-.27.67-.36 1.02-.24 1.12.37 2.33.57 3.57.57.55 0 1 .45 1 1V20c0 .55-.45 1-1 1C10.61 21 3 13.39 3 4c0-.55.45-1 1-1h3.5c.55 0 1 .45 1 1 0 1.25.2 2.45.57 3.57.11.35.03.74-.25 1.02l-2.2 2.2Z" transform="translate(86 156) scale(31.8)"/>
  </g>

  <text x="76" y="306" fill="#ffffff" font-family="Manrope, Arial, sans-serif" font-size="76" font-weight="800">LeadWatch</text>
  <text x="80" y="366" fill="#dbeafe" font-family="Manrope, Arial, sans-serif" font-size="31" font-weight="650">Every sales call. One clear picture.</text>
  <text x="80" y="426" fill="#a8b8cb" font-family="Arial, sans-serif" font-size="25">Android call activity becomes clear team visibility</text>
  <text x="80" y="462" fill="#a8b8cb" font-family="Arial, sans-serif" font-size="25">without spreadsheets or manual reporting.</text>
  <rect x="80" y="520" width="390" height="54" rx="8" fill="url(#accent)"/>
  <text x="108" y="555" fill="#03121b" font-family="Manrope, Arial, sans-serif" font-size="23" font-weight="800">Built for Android sales teams</text>

  <g transform="translate(707 98)" filter="url(#shadow)">
    <rect width="416" height="404" rx="18" fill="#0d1725" stroke="#314156"/>
    <rect x="24" y="26" width="368" height="54" rx="10" fill="#121f31"/>
    <circle cx="52" cy="53" r="9" fill="#47bfff"/>
    <rect x="78" y="44" width="140" height="18" rx="5" fill="#34465f"/>
    <rect x="260" y="42" width="104" height="22" rx="7" fill="#1f8efa"/>

    <rect x="30" y="108" width="332" height="68" rx="12" fill="#142337"/>
    <circle cx="64" cy="142" r="14" fill="#47bfff"/>
    <path d="m58 142 5 5 10-12" fill="none" stroke="#07111f" stroke-width="5" stroke-linecap="round" stroke-linejoin="round"/>
    <text x="92" y="138" fill="#ffffff" font-family="Manrope, Arial, sans-serif" font-size="19" font-weight="700">Call activity synced</text>
    <text x="92" y="160" fill="#9fb0c6" font-family="Arial, sans-serif" font-size="14">Securely from the Android app</text>

    <rect x="30" y="194" width="332" height="68" rx="12" fill="#142337"/>
    <circle cx="64" cy="228" r="14" fill="#8b5cf6"/>
    <path d="M57 231h4v-8h6v8h4v-13h6" fill="none" stroke="#ffffff" stroke-width="4" stroke-linecap="round"/>
    <text x="92" y="224" fill="#ffffff" font-family="Manrope, Arial, sans-serif" font-size="19" font-weight="700">Manager view updated</text>
    <text x="92" y="246" fill="#9fb0c6" font-family="Arial, sans-serif" font-size="14">Clear team activity and follow-through</text>

    <rect x="30" y="280" width="332" height="68" rx="12" fill="#142337"/>
    <circle cx="64" cy="314" r="14" fill="#4ade80"/>
    <path d="m58 314 5 5 10-12" fill="none" stroke="#07111f" stroke-width="5" stroke-linecap="round" stroke-linejoin="round"/>
    <text x="92" y="310" fill="#ffffff" font-family="Manrope, Arial, sans-serif" font-size="19" font-weight="700">Next action is visible</text>
    <text x="92" y="332" fill="#9fb0c6" font-family="Arial, sans-serif" font-size="14">For the right role, at the right time</text>
  </g>
</svg>
